HIERARCHY
ROOT ui
{
	 OFFSET 0 0 0
	 CHANNELS 3 XPosition YPosition Z Position
	 EndSite
	 {
	 OFFSET 0 -1 0
	 }
}
ROOT li
{
	 OFFSET 0 0 0
	 CHANNELS 3 XPosition YPosition Z Position
	 EndSite
	 {
	 OFFSET 0 -1 0
	 }
}
ROOT ul
{
	 OFFSET 0 0 0
	 CHANNELS 3 XPosition YPosition Z Position
	 EndSite
	 {
	 OFFSET 0 -1 0
	 }
}
ROOT ll
{
	 OFFSET 0 0 0
	 CHANNELS 3 XPosition YPosition Z Position
	 EndSite
	 {
	 OFFSET 0 -1 0
	 }
}
ROOT tt
{
	 OFFSET 0 0 0
	 CHANNELS 3 XPosition YPosition Z Position
	 EndSite
	 {
	 OFFSET 0 -1 0
	 }
}
ROOT tb
{
	 OFFSET 0 0 0
	 CHANNELS 3 XPosition YPosition Z Position
	 EndSite
	 {
	 OFFSET 0 -1 0
	 }
}
ROOT td
{
	 OFFSET 0 0 0
	 CHANNELS 3 XPosition YPosition Z Position
	 EndSite
	 {
	 OFFSET 0 -1 0
	 }
}
ROOT v
{
	 OFFSET 0 0 0
	 CHANNELS 3 XPosition YPosition Z Position
	 EndSite
	 {
	 OFFSET 0 -1 0
	 }
}
ROOT bn
{
	 OFFSET 0 0 0
	 CHANNELS 3 XPosition YPosition Z Position
	 EndSite
	 {
	 OFFSET 0 -1 0
	 }
}
MOTION
Frames: 24
Frame Time: 0.002
0.0010977779626846313	-1.3721000403165817E-5	0		0.49565850830078123	-2.4844794921875	0		-1.1699349365234375	0.0048240189552307125	0		-0.7094115600585937	-2.640223388671875	0		1.4145694580078125	-0.7609839477539062	0		2.991896728515625	0.044095458984375	0		4.54449755859375	0.318445556640625	0		5.6660927734375	0.20063026428222655	0		-0.3997047424316406	5.85853466796875	0		
0.033088394165039066	-0.009580012321472167	0		0.5403615112304687	-2.49426904296875	0		-1.0978319091796875	0.0038806281089782714	0		-0.725504150390625	-2.63209521484375	0		1.38570751953125	-0.751934814453125	0		2.959038330078125	0.04601438903808594	0		4.5465654296875	0.31173855590820315	0		5.66111181640625	0.18901809692382812	0		-0.43216098022460936	5.8398466796875	0		
-0.008673583984375	-0.0022036099433898927	0		0.5023652038574219	-2.48200537109375	0		-1.17565380859375	0.006857931137084961	0		-0.6977548217773437	-2.638530029296875	0		1.399709716796875	-0.7564426879882813	0		2.987031982421875	0.03313742446899414	0		4.534775390625	0.3131859130859375	0		5.6590732421875	0.18937626647949218	0		-0.2707852783203125	5.8796689453125	0		
0.039547725677490236	-0.0019998159408569334	0		0.5440213012695313	-2.50178466796875	0		-1.1655584716796874	-0.0022987289428710936	0		-0.7558358764648437	-2.6358603515625	0		1.3648321533203125	-0.7563307495117187	0		2.95343408203125	0.04703984451293945	0		4.53002685546875	0.312521240234375	0		5.66	0.20170785522460938	0		-0.2728358459472656	5.8805693359375	0		
-2.0840199291706084E-4	-0.00666707706451416	0		0.4832840576171875	-2.48124072265625	0		-1.177053955078125	0.012814274787902832	0		-0.7218611450195312	-2.63640234375	0		1.4060802001953125	-0.7542293701171875	0		2.970665771484375	0.04025951766967773	0		4.54146337890625	0.3186220703125	0		5.65165771484375	0.20218020629882813	0		-0.4080473327636719	5.862205078125	0		
0.03734276962280274	0.002629204988479614	0		0.522444091796875	-2.47803125	0		-1.1796163330078124	0.013790552139282226	0		-0.7247567138671875	-2.635483154296875	0		1.380383544921875	-0.7562723388671875	0		2.95617431640625	0.045872978210449215	0		4.52486083984375	0.31306549072265627	0		5.6562353515625	0.20219473266601562	0		-0.4391502380371094	5.8424716796875	0		
0.019793266296386718	-0.005372482776641846	0		0.5015946960449219	-2.48505419921875	0		-1.1111185302734374	0.008789444923400879	0		-0.6966170043945312	-2.64200537109375	0		1.3919365234375	-0.7498339233398438	0		2.98863916015625	0.03783196258544922	0		4.52856298828125	0.3202135925292969	0		5.65448974609375	0.20236174011230468	0		-0.4115633239746094	5.8639375	0		
0.014453336715698243	-0.008564129829406738	0		0.5229254760742188	-2.489671875	0		-1.1883824462890624	0.011714546203613282	0		-0.7362192993164063	-2.63964697265625	0		1.36957177734375	-0.7479693603515625	0		2.948402587890625	0.0417381591796875	0		4.53122314453125	0.31334423828125	0		5.65284765625	0.20247572326660157	0		-0.28080862426757813	5.88597119140625	0		
0.005496687889099121	0.005263822078704834	0		0.4705791931152344	-2.481320068359375	0		-1.1776524658203125	0.0024225900173187255	0		-0.7386846923828125	-2.638819091796875	0		1.373247802734375	-0.7544873046875	0		2.947110107421875	0.030090620040893554	0		4.51812939453125	0.31366064453125	0		5.6490771484375	0.18531008911132812	0		-0.4135458679199219	5.862533203125	0		
0.013392956733703613	-0.003175419092178345	0		0.4822347106933594	-2.484872802734375	0		-1.171535888671875	0.010156551361083984	0		-0.7579493408203125	-2.634794677734375	0		1.3762706298828125	-0.7470292358398437	0		2.986323486328125	0.04385608291625977	0		4.520271484375	0.31974139404296875	0		5.648611328125	0.22854318237304688	0		-0.41380999755859377	5.86226953125	0		
0.011567543029785157	-0.0025177059173583983	0		0.520114990234375	-2.483828857421875	0		-1.11528173828125	0.016152521133422852	0		-0.7390855712890625	-2.63333447265625	0		1.3892412109375	-0.7547464599609375	0		2.94247998046875	0.042733417510986325	0		4.5254013671875	0.31374969482421877	0		5.65149853515625	0.2145206298828125	0		-0.4168603210449219	5.8670068359375	0		
0.006838120937347412	-0.005858061790466308	0		0.4812873229980469	-2.472754638671875	0		-1.1959874267578126	0.015013239860534667	0		-0.75600341796875	-2.627417236328125	0		1.3674932861328124	-0.7530142822265625	0		2.9367421875	0.03805527877807617	0		4.51478076171875	0.3149510192871094	0		5.64737158203125	0.20242256164550781	0		-0.41684332275390623	5.86666162109375	0		
0.005310641765594482	-0.005282011985778809	0		0.5122716064453126	-2.486698974609375	0		-1.1225341796875	0.013668749809265137	0		-0.7469642944335938	-2.6359072265625	0		1.3828206787109374	-0.7568365478515625	0		2.940120361328125	0.031220462799072264	0		4.522275390625	0.3138754577636719	0		5.6427861328125	0.2162620849609375	0		-0.3136697082519531	5.86781591796875	0		
-0.021060205459594725	-0.003391057014465332	0		0.47059762573242186	-2.486650634765625	0		-1.1929697265625	0.01131281280517578	0		-0.7486446533203125	-2.63528857421875	0		1.3644080810546875	-0.7522131958007813	0		2.963819580078125	0.03707172393798828	0		4.52092333984375	0.31390756225585936	0		5.65234228515625	0.1915314483642578	0		-0.4184217529296875	5.86786865234375	0		
-0.004143930912017822	0.008846514701843262	0		0.513150146484375	-2.481837158203125	0		-1.1151873779296875	0.01379848575592041	0		-0.746117919921875	-2.63077294921875	0		1.3661324462890625	-0.74790478515625	0		2.9415576171875	0.03655737686157227	0		4.5227880859375	0.31988455200195315	0		5.6607802734375	0.2031628875732422	0		-0.2857720642089844	5.88749560546875	0		
0.004600479125976563	1.5940900146961212E-4	0		0.45987518310546877	-2.474679931640625	0		-1.1972161865234374	0.021533435821533203	0		-0.7495282592773438	-2.63221484375	0		1.3818602294921876	-0.7528270263671875	0		2.96636083984375	0.03135157012939453	0		4.51860791015625	0.3139439697265625	0		5.65234033203125	0.2396125946044922	0		-0.4196134033203125	5.868904296875	0		
0.025539331436157227	-0.0037424719333648683	0		0.5085327453613281	-2.483029052734375	0		-1.1272950439453124	0.01602593994140625	0		-0.7527919311523438	-2.633700927734375	0		1.3807926025390624	-0.7525318603515625	0		2.9724931640625	0.04040298843383789	0		4.517634765625	0.3139600524902344	0		5.655794921875	0.22202969360351563	0		-0.31607388305664064	5.86984716796875	0		
-0.025321876525878906	-0.0016327790021896363	0		0.453503662109375	-2.478899658203125	0		-1.203152099609375	0.018593069076538085	0		-0.765779052734375	-2.62608544921875	0		1.3768082275390625	-0.755217041015625	0		2.95957275390625	0.03772261810302734	0		4.51269189453125	0.3080398864746094	0		5.65861083984375	0.20276554870605468	0		-0.316487060546875	5.8702529296875	0		
0.02389053535461426	-0.003021272897720337	0		0.5163797607421875	-2.491526123046875	0		-1.1979921875	0.013933856964111329	0		-0.7548341674804687	-2.63286328125	0		1.3649598388671875	-0.7568071899414063	0		2.942692138671875	0.03009592628479004	0		4.509931640625	0.30709814453125	0		5.6516484375	0.20464512634277343	0		-0.2875826416015625	5.88819140625	0		
0.010260153770446777	-5.216500163078308E-4	0		0.4677214050292969	-2.48054052734375	0		-1.1836246337890626	0.01609393310546875	0		-0.7386851196289063	-2.634759033203125	0		1.3872801513671875	-0.7549193725585938	0		2.97510302734375	0.034740882873535155	0		4.50848046875	0.32014950561523436	0		5.65409765625	0.21660736083984375	0		-0.40505364990234377	5.87824560546875	0		
0.025708982467651367	5.176010131835938E-4	0		0.5070415344238282	-2.4798798828125	0		-1.20108251953125	0.023681758880615234	0		-0.76518798828125	-2.62106103515625	0		1.357739990234375	-0.7502843017578125	0		2.936574462890625	0.037428726196289064	0		4.51484326171875	0.3140941162109375	0		5.660109375	0.2163656768798828	0		-0.4214356994628906	5.8707802734375	0		
-0.02475053596496582	0.002504987955093384	0		0.45250845336914064	-2.475853515625	0		-1.2015614013671876	0.023978246688842773	0		-0.7219901123046875	-2.6354345703125	0		1.37416748046875	-0.7543466796875	0		2.96201904296875	0.032166786193847656	0		4.51028759765625	0.308211669921875	0		5.65041796875	0.20461341857910156	0		-0.288373046875	5.8900673828125	0		
-0.0032224540710449217	-0.0016031270027160646	0		0.5019069213867188	-2.4833935546875	0		-1.2001048583984375	0.01520713233947754	0		-0.7584683837890625	-2.6336572265625	0		1.35374951171875	-0.7528766479492187	0		2.936508544921875	0.025659669876098634	0		4.5098876953125	0.3082806701660156	0		5.6501220703125	0.20467247009277345	0		-0.3168979187011719	5.8697138671875	0		
-0.02855826950073242	-3.8906000554561615E-5	0		0.461481689453125	-2.4836181640625	0		-1.1894739990234375	0.014264601707458496	0		-0.7588868408203125	-2.63344677734375	0		1.37925537109375	-0.7611050415039062	0		2.96125732421875	0.03240543746948242	0		4.50263232421875	0.314464599609375	0		5.6569677734375	0.19931898498535155	0		-0.42212457275390625	5.869478515625	0		
